<?xml version="1.0" encoding="utf-8"?>
<!-- Generator: Adobe Illustrator 18.0.0, SVG Export Plug-In . SVG Version: 6.00 Build 0)  -->
<!DOCTYPE svg PUBLIC "-//W3C//DTD SVG 1.1//EN" "http://www.w3.org/Graphics/SVG/1.1/DTD/svg11.dtd">
<svg version="1.1" id="Layer_1" xmlns="http://www.w3.org/2000/svg" xmlns:xlink="http://www.w3.org/1999/xlink" x="0px" y="0px"
	 viewBox="0 0 64 64" enable-background="new 0 0 64 64" xml:space="preserve">
<g>
	<g>
		<g>
			<path d="M51,53H13C5.8,53,0,47.2,0,40c0-5.7,3.7-10.7,9-12.4c0.4-5.4,5-9.6,10.5-9.6c0.6,0,1.2,0.1,1.8,0.2
				c2.9-5,8.4-8.2,14.2-8.2C44.6,10,52,17.4,52,26.5c0,0.2,0,0.4,0,0.5c6.7,0.5,12,6.1,12,13C64,47.2,58.2,53,51,53z M19.5,22
				c-3.6,0-6.5,2.9-6.5,6.5c0,0.2,0,0.4,0,0.5l0.1,1.8l-1.8,0.3C7.1,31.9,4,35.7,4,40c0,5,4,9,9,9h38c5,0,9-4,9-9s-4-9-9-9h-3.6
				l0.4-2.3c0.1-0.8,0.2-1.5,0.2-2.2C48,19.6,42.4,14,35.5,14c-4.9,0-9.3,2.9-11.4,7.3L23.4,23l-1.7-0.6C20.9,22.1,20.2,22,19.5,22z
				"/>
		</g>
	</g>
</g>
</svg>
