{
  "asset": {
    "version": "2.0",
    "generator": "THREE.GLTFExporter"
  },
  "scenes": [
    {
      "name": "Scene",
      "nodes": [
        7
      ]
    }
  ],
  "scene": 0,
  "nodes": [
    {
      "name": "Object_4",
      "extras": {
        "name": "Object_4"
      },
      "mesh": 0
    },
    {
      "matrix": [
        0.5740929841995239,
        0,
        0,
        0,
        0,
        0.4140929877758026,
        0,
        0,
        0,
        0,
        0.5740929841995239,
        0,
        0,
        0.21811126172542572,
        0,
        1
      ],
      "name": "Body_0",
      "extras": {
        "name": "Body_0"
      },
      "children": [
        0
      ]
    },
    {
      "name": "Object_6",
      "extras": {
        "name": "Object_6"
      },
      "mesh": 1
    },
    {
      "matrix": [
        -0.04617034502506443,
        -0.17231015719813964,
        0,
        0,
        0.17231015719813964,
        -0.04617034502506443,
        0,
        0,
        0,
        0,
        0.1783885955810547,
        0,
        -0.07000000029802322,
        1.1153608560562134,
        0,
        1
      ],
      "name": "Head_1",
      "extras": {
        "name": "Head_1"
      },
      "children": [
        2
      ]
    },
    {
      "matrix": [
        2.220446049250313e-16,
        1,
        -2.220446049250313e-16,
        0,
        0,
        2.220446049250313e-16,
        1,
        0,
        1,
        -2.220446049250313e-16,
        0,
        0,
        0,
        0,
        -1,
        1
      ],
      "name": "GLTF_SceneRootNode",
      "extras": {
        "name": "GLTF_SceneRootNode"
      },
      "children": [
        1,
        3
      ]
    },
    {
      "name": "root",
      "extras": {
        "name": "root"
      },
      "children": [
        4
      ]
    },
    {
      "matrix": [
        1,
        0,
        0,
        0,
        0,
        2.220446049250313e-16,
        -1,
        0,
        0,
        1,
        2.220446049250313e-16,
        0,
        0,
        0,
        0,
        1
      ],
      "name": "Sketchfab_model",
      "extras": {
        "name": "Sketchfab_model"
      },
      "children": [
        5
      ]
    },
    {
      "name": "scene.gltf",
      "children": [
        6
      ]
    }
  ],
  "bufferViews": [
    {
      "buffer": 0,
      "byteOffset": 0,
      "byteLength": 3240,
      "target": 34962,
      "byteStride": 12
    },
    {
      "buffer": 0,
      "byteOffset": 3240,
      "byteLength": 3240,
      "target": 34962,
      "byteStride": 12
    },
    {
      "buffer": 0,
      "byteOffset": 6480,
      "byteLength": 2160,
      "target": 34962,
      "byteStride": 8
    },
    {
      "buffer": 0,
      "byteOffset": 8640,
      "byteLength": 1632,
      "target": 34963
    },
    {
      "buffer": 0,
      "byteOffset": 10272,
      "byteLength": 8952,
      "target": 34962,
      "byteStride": 12
    },
    {
      "buffer": 0,
      "byteOffset": 19224,
      "byteLength": 8952,
      "target": 34962,
      "byteStride": 12
    },
    {
      "buffer": 0,
      "byteOffset": 28176,
      "byteLength": 5968,
      "target": 34962,
      "byteStride": 8
    },
    {
      "buffer": 0,
      "byteOffset": 34144,
      "byteLength": 11880,
      "target": 34963
    }
  ],
  "buffers": [
    {
      "byteLength": 46024,
      "uri": "data:application/octet-stream;base64,"
    }
  ],
  "accessors": [
    {
      "bufferView": 0,
      "componentType": 5126,
      "count": 270,
      "max": [
        0.9964295625686646,
        0.9999573230743408,
        0.8650529980659485
      ],
      "min": [
        -0.9993029236793518,
        -1,
        -0.8660197854042053
      ],
      "type": "VEC3"
    },
    {
      "bufferView": 1,
      "componentType": 5126,
      "count": 270,
      "max": [
        0.866025447845459,
        2.170595169067383,
        1
      ],
      "min": [
        -0.866025447845459,
        0,
        -1
      ],
      "type": "VEC3"
    },
    {
      "bufferView": 2,
      "componentType": 5126,
      "count": 270,
      "max": [
        0,
        0
      ],
      "min": [
        0,
        0
      ],
      "type": "VEC2"
    },
    {
      "bufferView": 3,
      "componentType": 5125,
      "count": 408,
      "max": [
        269
      ],
      "min": [
        0
      ],
      "type": "SCALAR"
    },
    {
      "bufferView": 4,
      "componentType": 5126,
      "count": 746,
      "max": [
        1,
        0.999984085559845,
        1
      ],
      "min": [
        -1,
        -1,
        -1
      ],
      "type": "VEC3"
    },
    {
      "bufferView": 5,
      "componentType": 5126,
      "count": 746,
      "max": [
        0.3329470157623291,
        2.090916156768799,
        2.2768778800964355
      ],
      "min": [
        -5.137106895446777,
        -2.2768771648406982,
        -2.2768778800964355
      ],
      "type": "VEC3"
    },
    {
      "bufferView": 6,
      "componentType": 5126,
      "count": 746,
      "max": [
        1,
        1
      ],
      "min": [
        0,
        0
      ],
      "type": "VEC2"
    },
    {
      "bufferView": 7,
      "componentType": 5125,
      "count": 2970,
      "max": [
        745
      ],
      "min": [
        0
      ],
      "type": "SCALAR"
    }
  ],
  "materials": [
    {
      "pbrMetallicRoughness": {
        "baseColorFactor": [
          0.8,
          0.8,
          0.8,
          1
        ],
        "metallicFactor": 0,
        "roughnessFactor": 0.5
      },
      "name": "Material.001"
    }
  ],
  "meshes": [
    {
      "primitives": [
        {
          "mode": 4,
          "attributes": {
            "NORMAL": 0,
            "POSITION": 1,
            "TEXCOORD_0": 2
          },
          "indices": 3,
          "material": 0
        }
      ]
    },
    {
      "primitives": [
        {
          "mode": 4,
          "attributes": {
            "NORMAL": 4,
            "POSITION": 5,
            "TEXCOORD_0": 6
          },
          "indices": 7,
          "material": 0
        }
      ]
    }
  ]
}